<svg version="1.1" id="Layer_1" xmlns="http://www.w3.org/2000/svg" xmlns:xlink="http://www.w3.org/1999/xlink" x="0" y="0" viewBox="0 0 2560 763" xml:space="preserve" enable-background="new 0 0 2560 763"><style>.st0{fill:none;stroke:#aad5fb;stroke-width:1.19;stroke-linejoin:round;stroke-dasharray:4.16,4.16}.st2{fill:#aad5fb}.st3{fill:#eaf5ff}.st4{fill:#ffb8b8}.st5{fill:#212122}.st6{fill-rule:evenodd;clip-rule:evenodd;fill:#333}.st9{fill:#fff}.st10{fill:#d6001d}.st11{fill:#ffb8b8}.st11,.st14,.st15,.st18{fill-rule:evenodd;clip-rule:evenodd}.st14{opacity:.2;fill:#f06666;enable-background:new}.st15,.st18{fill:#4c277e}.st18{fill:#7945c1}.st19{fill:#d4eaff;enable-background:new}.st25{fill:#4c277e}.st28{opacity:.2;fill:#f06666;enable-background:new}.st30{fill-rule:evenodd;clip-rule:evenodd;fill:#de1414}.st34{fill:#fde5a6;enable-background:new}.st37{fill:#ad63e3}.st38{fill:#d095fb}.st39,.st40,.st41{fill:#f06666}.st40,.st41{fill-rule:evenodd;clip-rule:evenodd}.st41{fill:#fff}</style><path class="st0" d="M2469.6-.2c5.8 16.4 9.4 33.8 10.5 52.2 10.6 187.3-242.9 325.2-422.3 269.6-17.3-5.3-33.9-11.8-49.7-19.2-39.7-18.8-72.7-53.1-119.9-60-61.1-8.9-120.6 26.8-166.1 66.1-86.9 75-104.5 108-188.1 184.7-60.2 55.3-137.9 114.4-227 124.6-63.8 7.3-139.1 4.1-188.7-25.2-92.2-54.5-101.1-150.9-241.7-224.6-63.7-33.4-137.2-19.6-206.3-34.1C551.1 309.1 505.4 145.5 524.4-.3M153.4 761.4c-16.9-49.2-32.7-99.7-18.7-150.1C166 498.6 311 479.6 383.9 556c7 7.3 13.5 15.2 19.5 23.5 14.9 20.7 23.6 49 44.3 64.6 26.8 20.2 61.5 13.7 90.3 1.7 55.1-22.8 69.7-38 123.6-62.6 38.8-17.8 86.5-33.5 130-17.8 31.2 11.3 65.6 31.6 83.1 60.9 24.3 40.9 22.2 84.2 41.3 136.1"/><path class="st0" d="M1337.1 762.7c-16.2-24.3-28.5-50.6-33.4-80.3-22.5-138.8 126.3-232.7 244.4-185.9 11.4 4.5 22.4 9.8 33.1 15.8 26.7 15.2 50.5 41.6 80.9 48.2 39.4 8.5 74-16 99.5-43.6 48.7-52.7 57-76.6 103.4-130.6 33.4-38.9 77.6-80.2 133.1-84.9 39.8-3.4 87.6 1.4 121.4 24.6 62.9 43.2 76.7 114.8 171.8 173.8 43.1 26.7 88.4 18.9 133.4 31.8 94.2 27.1 139.7 139.7 118.4 231.4"/><path d="M909.1 278.7H795.3c-9 0-16.3-7.3-16.3-16.3V148.3c0-9 7.3-16.3 16.3-16.3h113.8c9 0 16.3 7.3 16.3 16.3v114.1c0 9-7.3 16.3-16.3 16.3z" opacity=".95" fill="#fff" enable-background="new"/><path class="st2" d="M886.4 245.6h-67.3v2.4h67.3v-2.4zM877 256.3h-48.4v2.4H877v-2.4zM886.4 147.2v2.1h12.1v11.4h2.1v-13.5h-14.2zM804 160.7h2.1v-11.4h12.1v-2.1H804v13.5zm94.6 58.9V231h-12.1v2.1h14.2v-13.5h-2.1zm-92.5 0H804v13.5h14.2V231h-12.1v-11.4z"/><path class="st3" d="M837.3 206.3c1.2-.4 4.1-1.3 8.5-1.8 0 .1 3.4 5.2 7.4 5.7 2.5-1 4.4-2 7.1-5.6 3.1.3 9.9 1.8 9.9 1.8s6.7.5 17.6 15.9c1.6-1.5 2.5-3.5 2.5-5.8v-52.9c0-4.4-3.6-8-8-8h-60.2c-4.4 0-8 3.6-8 8v52.9c0 3.1 1.7 5.7 4.3 7.1 11.3-16.3 18.7-17.3 18.9-17.3z"/><path class="st4" d="M847 193.3s-.2 7.7-1.2 11.1l-7.8 5.4 29.2 4.4-7-9.7s-2.1-10.3-1-14.1c1.1-3.7-12.2 2.9-12.2 2.9z"/><path class="st2" d="M882.3 224.6c2.1 0 4-.8 5.5-2.2-10.9-15.4-17.6-15.9-17.6-15.9s-6.9-1.5-9.9-1.8c-2.7 3.6-4.7 4.6-7.1 5.6-4-.6-7.4-5.6-7.4-5.7-4.3.5-7.3 1.4-8.5 1.8-.2 0-7.6 1.1-18.9 17.4 1.1.6 2.4.9 3.7.9h60.2z"/><path class="st4" d="M846.9 194.4s2.3 5.6 6.7 5.5c4.4-.1 5.3-5.1 5.3-5.1l-12-.4z"/><path class="st5" d="M844.3 189.9s-1.4-7.1-2.4-9.2c-1-2.1-1.8-11.6 9.1-12.1 0 0 4.2.5 6.5-.9 0 0 0 1.4-.6 1.9 0 0 3.8-.9 6.7 2.4 2.9 3.3-2 14.8-1.7 17.5l-17.6.4z"/><path class="st4" d="M862.1 180.1v7.7c0 1.3-.3 2.5-.8 3.7-.9 2-2.3 3.6-3.9 4.7-1.4 1-2.9 1.6-4.3 1.5-1.1 0-2.6-.6-4-1.5-1.9-1.3-3.8-3.3-4.5-5.6v-.1c-.2-.7-.3-1.5-.3-2.2v-8.1c0-1.9 1.3-3.5 2.9-3.5h12c1.5-.1 2.9 1.5 2.9 3.4z"/><path class="st5" d="M850.5 185.4c.3 0 .5-.3.5-.6l-.1-.6c0-.3-.3-.6-.5-.6-.3 0-.5.3-.5.6l.1.6c0 .4.3.7.5.6z"/><path class="st6" d="M857.7 182.3c-1.1-.7-2.6-.6-3.6-.1-.1 0-.1.1-.1.2s.1.1.2.1c.9-.5 2.2-.5 3.2.1h.2c.2-.2.2-.3.1-.3z"/><path class="st5" d="M855.6 183.8c-.3 0-.5.3-.5.6l.1.6c0 .4.3.6.6.6s.5-.3.5-.6l-.1-.6c0-.4-.3-.6-.6-.6z"/><path class="st6" d="M850.1 181.7c-.5 0-1 .1-1.4.4-.1 0-.1.1-.1.2s.1.1.2.1c.3-.2.8-.3 1.3-.3s.9.1 1.3.2c.1 0 .2 0 .2-.1s0-.2-.1-.2c-.4-.3-.9-.3-1.4-.3z"/><path class="st5" d="M844.1 184.4s0-4.9 3.9-5.7 12.5 2.4 13.8-1.2c1.2-3.6-16.7-3.5-17.6-1.2-1 2.3-.1 8.1-.1 8.1zM857.4 192.8v3.4c-1.4 1-2.9 1.6-4.3 1.5-1.1 0-2.6-.6-4-1.5v-3.4c0-1.9 1.5-3.4 3.4-3.4h1.4c1.9-.1 3.5 1.5 3.5 3.4z"/><path class="st5" d="M861.3 191.4c-1.6 3.7-5.4 6.3-8.2 6.3-2.7-.1-7.2-3.1-8.6-7.1v-.1s2.9 2.4 4.8 1.2h8c-.1 0 2 1.2 4-.3z"/><path class="st4" d="M854.1 192.4h-1.7c-.4 0-.9-.6-.9-1 0 0 .5-.4.9-.4h1.7c.4 0 1 .3 1.1.6-.1-.1-.3.8-1.1.8z"/><path class="st3" d="M1749 203.6c0-1.4 1.1-2.5 2.5-2.5h152.4c1.4 0 2.5 1.1 2.5 2.5v145.1c0 1.4-1.1 2.5-2.5 2.5h-152.4c-1.4 0-2.5-1.1-2.5-2.5V203.6z"/><defs><filter id="Adobe_OpacityMaskFilter" filterUnits="userSpaceOnUse" x="1763.8" y="214.5" width="63.8" height="91.8"><feColorMatrix values="1 0 0 0 0 0 1 0 0 0 0 0 1 0 0 0 0 0 1 0"/></filter></defs><mask maskUnits="userSpaceOnUse" x="1763.8" y="214.5" width="63.8" height="91.8" id="mask2_1_"><circle cx="1788.6" cy="240.4" fill="#eaf5ff" filter="url(#Adobe_OpacityMaskFilter)" r="23.9"/></mask><g mask="url(#mask2_1_)"><path class="st9" d="M1811.4 214.5h-45.2c-1.3 0-2.4 1.1-2.4 2.4v47.8c0 1.3 1.1 2.4 2.4 2.4h45.2c1.3 0 2.4-1.1 2.4-2.4v-47.8c0-1.3-1.1-2.4-2.4-2.4z"/><path class="st9" d="M1763.8 218.3h52.4v47.3h-52.4z"/><path class="st9" d="M1815.1 218.3h-50c-.7 0-1.2.5-1.2 1.2v44.9c0 .7.5 1.2 1.2 1.2h50c.7 0 1.2-.5 1.2-1.2v-44.9c0-.6-.6-1.2-1.2-1.2z"/><path class="st10" d="M1771 274.7l4.5-10.9s1.3-4.7 10.9-7.6l2-.7 9-1.2 10.8 3s8.8 3 12.1 13.8l6.9 19.5s2.3 6.6-4.6 9.6l-7.1 1.6.6 4.5h-37.5l-7.6-31.6z"/><path class="st11" d="M1797.4 254.6l-2.3-6.9 1.5-15.7-17.7.6s.1 1.8.6 4.7c.1.7-.5 4.3-.8 5.7-.1.1 0 .2.1.4.1.1.2.2.3.2.4.1.9.1.9.1l.3 2.4s.6 0 1-.1c.6-.1 1.7-.4 1.7-.4s-.7.6-1.3.9c-.4.2-1.3.3-1.3.3s.6 1.8.7 3c.3 2.7 6.3.6 6.3.6l1 6.9.5 3.1 6.1-3.8 2.4-2z"/><defs><filter id="Adobe_OpacityMaskFilter_1_" filterUnits="userSpaceOnUse" x="1781.6" y="248.8" width="8.8" height="11.3"><feColorMatrix values="1 0 0 0 0 0 1 0 0 0 0 0 1 0 0 0 0 0 1 0"/></filter></defs><mask maskUnits="userSpaceOnUse" x="1781.6" y="248.8" width="8.8" height="11.3" id="mask3_1_"><path d="M1798.1 256l-3.1-8.3 1.5-15.6-17.4.6s.1 1.8.6 4.7c.1.7-.5 4.3-.8 5.6 0 .1 0 .2.1.4.1.1.2.2.3.2.4.1.9.1.9.1l.3 2.4s.6 0 1-.1c.6-.1 1.7-.4 1.7-.4s-.7.6-1.3.9c-.4.2-1.3.3-1.3.3s.6 1.8.7 3c.3 2.6 6.2.6 6.2.6l1 6.8 1.7 9.8 4.9-8.4 3-2.6z" fill-rule="evenodd" clip-rule="evenodd" fill="#ffb8b8" filter="url(#Adobe_OpacityMaskFilter_1_)"/></mask><g mask="url(#mask3_1_)"><path class="st14" d="M1781.6 251.3s2.6.1 4.6-.5c2-.6 4.1-2.1 4.1-2.1s-1.1 1.6-1.3 5.3c-.1 2.6-.2 6-.2 6l-4.6-4.2-2.6-4.5z"/></g><path class="st6" d="M1781.8 238.8c0-.2.2-.5.5-.5s.6.2.6.4v.7c0 .2-.2.5-.5.5s-.6-.2-.6-.4c.1-.2 0-.5 0-.7zM1781.6 237.3c.9-.3 1.8-.2 2.4.4h.1v-.1c-.6-.6-1.6-.8-2.6-.4-.1 0-.1.1-.1.1h.2z"/><path class="st15" d="M1795 247.8s2.6-1.2 1.9-3.8c-.4-1.3-.7-2 .2-3.6 1.4-2.5 3.3-7.3 1.1-10.3-1.7-2.3-4.1-1.8-4.1-1.8s-1.2-3.8-5.3-3.8c-5.1 0-7.2 2.6-7.9 3.5-.6.6-1.6-1.4-4.4-1-4.8.7-3.6 4.7-2.9 5.7.7 1 1.5 2.4 3.1 2.9s6.3.6 10-.4c2.5-.7 3.3-1.4 3.3-1.4s0 1.2.5 2.5c.6 1.8 1 2.7 1 2.7s.5-1.2 1.2-1.2c1 0 1.3.9 1.2 1.4-.1 1.7-1.8 2.1-1.8 2.1l2.9 6.5z"/><defs><filter id="Adobe_OpacityMaskFilter_2_" filterUnits="userSpaceOnUse" x="1772.8" y="223.6" width="25.9" height="23.4"><feColorMatrix values="1 0 0 0 0 0 1 0 0 0 0 0 1 0 0 0 0 0 1 0"/></filter></defs><mask maskUnits="userSpaceOnUse" x="1772.8" y="223.6" width="25.9" height="23.4" id="mask4_1_"><path d="M1795 247.8s2.6-1.2 1.9-3.8c-.4-1.3-.7-2 .2-3.6 1.4-2.5 3.3-7.3 1.1-10.3-1.7-2.3-4.1-1.8-4.1-1.8s-1.2-3.8-5.3-3.8c-5.1 0-7.1 2.6-7.9 3.5-.6.6-1.6-1.4-4.4-1-4.8.7-3.5 4.6-2.8 5.6.7 1 1.5 2.4 3.1 2.9s6.2.6 10-.4c2.5-.7 3.3-1.4 3.3-1.4s.1 1.2.5 2.5c.6 1.8 1.1 2.7 1.1 2.7s.4-1.2 1.2-1.2c1 0 1.3.9 1.2 1.4-.1 1.7-1.8 2.1-1.8 2.1l2.7 6.6z" fill-rule="evenodd" clip-rule="evenodd" fill="#4c277e" filter="url(#Adobe_OpacityMaskFilter_2_)"/></mask><g mask="url(#mask4_1_)"><path class="st18" d="M1776 225.4c-.1 0-.1 0-.1.1v.8c.1.8.4 1.5.8 2.2 1.4 2.4 3.7 4.3 6.7 3.8 1.5-.2 2.7-1 3.9-1.8l1.2-.9c.8-.6 1.5-1.2 2.3-1.7 1.3-.8 2.5-1.3 4.1-.9.1 0 .1 0 .1-.1 0 0 0-.1-.1-.1-1.6-.3-2.9.2-4.2 1-.8.5-1.6 1.1-2.3 1.7l-1.2.9c-1.2.9-2.4 1.6-3.8 1.8-2.9.4-5.1-1.4-6.5-3.8-.4-.7-.7-1.4-.8-2.2v-.2-.2-.4c0 .1 0 0-.1 0zm14.4-1.8c-.9-.1-1.8.1-2.6.6-.6.4-1.1.9-1.6 1.4-.1.1-.2.2-.4.3-.6.6-1.3 1.2-2.1 1.5-.6.3-1.3.2-1.9 0-.2-.1-.4-.2-.6-.4v-.1-.1l-.1-.1c-.1 0-.1.1-.1.1s0 .1.1.1v.1s0 .1.1.1c.2.2.4.3.6.4.7.3 1.4.3 2 0 .9-.3 1.5-.9 2.2-1.5l.4-.4c.5-.5 1-1 1.6-1.4.8-.5 1.6-.7 2.5-.6 0 .2 0 .1-.1 0 .1 0 .1 0 0 0zm-12.3 2s.1 0 0 0c0 0 0-.1 0 0v-.1h-.2v.4l.1.5c.1.5.3 1.1.7 1.6 1 1.5 2.6 2.6 4.4 2.6 1.4 0 2.6-.6 3.7-1.3.5-.3 1-.7 1.4-1.1.1 0 .1-.1.2-.1.5-.4 1-.8 1.6-1.2 1.2-.8 2.4-1.4 3.9-1.1 0 0 .1 0 .1-.1s0-.1-.1-.1c-1.6-.3-2.8.3-4.1 1.1-.6.4-1.1.8-1.6 1.2-.1 0-.1.1-.2.1-.5.4-.9.8-1.4 1.1-1.1.8-2.2 1.3-3.6 1.3-1.7 0-3.3-1.1-4.3-2.6-.3-.4-.5-1-.6-1.5l-.1-.5c.1 0 .1-.1.1-.2zm-3.8.9c-.1-.1-.1-.1 0 0-.2-.1-.3 0-.3.1v.8c0 .9 0 1.9.5 2.7 1.2 2.1 3.9 3.8 6.2 4 2.8.2 5.8-1 8-2.7.5-.4.9-.8 1.3-1.1.5-.4.9-.8 1.4-1.2.9-.7 2-1.3 3.2-1.4 0 0 .1 0 .1-.1l-.1-.1c-1.3.2-2.3.7-3.3 1.5-.5.4-.9.8-1.4 1.2-.4.4-.9.8-1.3 1.1-2.1 1.7-5.1 2.8-7.8 2.6-2.3-.2-4.9-1.9-6.1-3.9-.5-.8-.5-1.7-.5-2.6v-.5-.2c0-.1 0-.1.1-.2-.1.1 0 0 0 0zm14.2-.3c-1.3 1-2.7 2-4.3 2.6-1.1.3-2.3.2-3.2-.6-.3-.4-.6-.7-.8-1.2 0 0 0-.1-.1-.1v-.1-.1s0-.1-.1-.1-.1.1-.1.1V227c0 .1 0 .1.1.2v.1c.2.5.4.9.8 1.2.9.9 2.3 1 3.4.6 1.6-.5 3-1.5 4.3-2.6l.2-.2c1.2-1 2.3-1.9 3.9-1.7.1 0 .1 0 .1-.1 0 0 0-.1-.1-.1-1.7-.2-2.8.7-4 1.7.1 0 0 0-.1.1zm-15.5 1.5c0-.1 0-.1-.1-.1h-.1v.4l.1.8c.2.8.5 1.5.8 2.2 0 .1 0 .1.1.2 1.1 2.2 3.7 3.7 6.2 3.9 1.5.1 2.9-.2 4.3-.4 2.1-.5 4-1.1 5.7-2.4.2-.1.3-.3.5-.4v.5c-.1.4 0 .8 0 1.2.2 1.1.5 2.3.9 3.4 0 .1.1.2.1.2 1.1 3.4 2.4 7.2 5 9.7h.1v-.1c-2.5-2.5-3.8-6.3-5-9.7 0-.1 0-.2-.1-.2-.4-1.1-.7-2.3-.8-3.4-.1-.4-.1-.8-.1-1.1v-.2-.2-.1-.2-.1c.1-.1.2-.3.3-.4 0-.1.1-.1.2-.2l.1-.1c.8.8 1.1 1.7 1.3 2.7.1.5.2 1 .2 1.6v.4c.1.4.1.8.1 1.2.2 1.7.8 3.3 1.4 4.9.4 1.2 1 2.4 1.8 3.5l.9 1c.1 0 .1.1.2.1 0 .1.1.1.2.2l.1.1h.2v-.1s0-.1-.1-.1l-.1-.1c-.1 0-.1-.1-.2-.1l-.2-.2-.9-1c-.8-1-1.3-2.2-1.8-3.4-.6-1.6-1.2-3.2-1.4-4.8-.1-.4-.1-.8-.1-1.2v-.4c-.1-.5-.1-1.1-.2-1.6-.2-1-.6-2-1.4-2.8.1-.1.2-.3.3-.4h.1c.8.1 1.4.6 1.9 1.1 1.2 1.2 1.6 2.9 1.6 4.6 0 .4 0 .8-.1 1.3v.5c-.1.6-.1 1.1 0 1.7.2 1.1.6 2.1 1.1 3 .2.4.4.6.7.9l.3.2h.2v-.2h-.1l-.2-.2c-.3-.3-.5-.5-.7-.8-.5-.9-.9-1.9-1.1-3-.1-.6-.1-1.1 0-1.7v-.4c0-.4.1-.9.1-1.3 0-1.7-.4-3.4-1.7-4.7-.6-.6-1.2-1.1-2-1.2l.1-.1c.3-.3.6-.6.9-.8 0 0 0 .1.1.1 1.4.2 2.6 1.3 3.3 2.5.7 1.3 1 2.8.8 4.1 0 .3-.1.6-.2.9v.1c-.1.3-.1.6-.2.9-.1.6-.2 1.2 0 1.9 0 0 .1.1.1.2s.1.3.1.4c.1.1.1.3.2.4l.1.1h.2s.1-.1 0-.1c0 0-.1-.1-.1 0l-.1-.1c-.1-.1-.1-.2-.2-.3 0-.1-.1-.3-.2-.4 0-.1-.1-.2-.1-.2-.1-.6-.1-1.2 0-1.8.1-.3.1-.6.2-.8v-.1c.1-.3.1-.6.2-.9.2-1.3-.1-2.9-.8-4.2-.7-1.3-1.9-2.4-3.4-2.6.3-.2.6-.4.9-.5.2 0 .5.2.7.3.1.1.3.2.4.3h.1c.1.1.2.1.3.2 1.8 1.3 2.7 3.2 3 5.3.1.5.1 1 0 1.5V237.4s.1.1.1 0c0 0 .1-.1 0-.1v-.1-.2-.2-.3c.1-.5 0-1 0-1.5-.3-2.2-1.3-4.1-3.1-5.5-.1-.1-.2-.1-.3-.2h-.1c-.1-.1-.3-.2-.4-.3-.2-.1-.4-.2-.5-.3.6-.3 1.2-.4 1.8-.5 0 0 .1 0 .1-.1 0 0 0-.1-.1-.1-.7.1-1.4.3-2.1.6h-.1s-.1 0-.1.1c-.7.4-1.3.9-1.8 1.4-.3.3-.5.6-.7.9l-.2.2c-.1.1-.2.2-.2.3l-.6.6c-1.7 1.3-3.5 1.9-5.7 2.4-1.4.3-2.8.5-4.3.4-2.4-.1-5-1.6-6.1-3.8 0-.1-.1-.1-.1-.2-.3-.7-.6-1.4-.8-2.2l-.1-.8v-.1-.2c.4.2.4.2.4.1z"/></g></g><circle class="st3" cx="1787.7" cy="302.5" r="23.9"/><path class="st9" d="M1884.3 227.6h-59.4c-1 0-1.8.8-1.8 1.8v.8c0 1 .8 1.8 1.8 1.8h59.4c1 0 1.8-.8 1.8-1.8v-.8c0-1-.8-1.8-1.8-1.8zM1872.2 249h-47.3c-1 0-1.8.8-1.8 1.8v.8c0 1 .8 1.8 1.8 1.8h47.3c1 0 1.8-.8 1.8-1.8v-.8c0-1-.8-1.8-1.8-1.8zM1851.1 238.3h-26.2c-1 0-1.8.8-1.8 1.8v.8c0 1 .8 1.8 1.8 1.8h26.2c1 0 1.8-.8 1.8-1.8v-.8c0-1-.8-1.8-1.8-1.8zM1883.9 289.7h-58.7c-1.2 0-2.1 1-2.1 2.1v.2c0 1.2 1 2.1 2.1 2.1h58.7c1.2 0 2.1-1 2.1-2.1v-.2c.1-1.2-.9-2.1-2.1-2.1zM1871.9 311.1h-46.7c-1.2 0-2.1 1-2.1 2.1v.2c0 1.2 1 2.1 2.1 2.1h46.7c1.2 0 2.1-1 2.1-2.1v-.2c0-1.1-.9-2.1-2.1-2.1zM1850.8 300.4h-25.6c-1.2 0-2.1 1-2.1 2.1v.2c0 1.2 1 2.1 2.1 2.1h25.6c1.2 0 2.1-1 2.1-2.1v-.2c0-1.1-.9-2.1-2.1-2.1z"/><path class="st19" d="M2051.6 501.9h-197.2c-7.4 0-13.4-6-13.4-13.4V311.4c0-7.4 6-13.4 13.4-13.4h197.2c7.4 0 13.4 6 13.4 13.4v177.1c0 7.4-6 13.4-13.4 13.4z"/><defs><filter id="Adobe_OpacityMaskFilter_3_" filterUnits="userSpaceOnUse" x="1791.1" y="318.2" width="145.8" height="156.5"><feColorMatrix values="1 0 0 0 0 0 1 0 0 0 0 0 1 0 0 0 0 0 1 0"/></filter></defs><mask maskUnits="userSpaceOnUse" x="1791.1" y="318.2" width="145.8" height="156.5" id="mask5_1_"><path d="M1918.9 354.2c0 17.9-14.5 32.4-32.4 32.4s-32.4-14.5-32.4-32.4 14.5-32.4 32.4-32.4 32.4 14.5 32.4 32.4z" fill="#eaf5ff" filter="url(#Adobe_OpacityMaskFilter_3_)"/></mask><g mask="url(#mask5_1_)"><path class="st9" d="M1920.6 321.3c0-1.5-1.2-2.8-2.8-2.8h-70.6c-1.5 0-2.8 1.2-2.8 2.8v60.9c0 1.5 1.2 2.8 2.8 2.8h70.6c1.5 0 2.8-1.2 2.8-2.8v-60.9z"/><path class="st9" d="M1920.6 321.3c0-1.5-1.2-2.8-2.8-2.8h-70.6c-1.5 0-2.8 1.2-2.8 2.8v60.9c0 1.5 1.2 2.8 2.8 2.8h70.6c1.5 0 2.8-1.2 2.8-2.8v-60.9z"/><defs><path id="SVGID_1_" d="M1791.1 318.2h145.8v149.6h-145.8z"/></defs><clipPath id="SVGID_2_"><use xlink:href="#SVGID_1_" overflow="visible"/></clipPath><g><path class="st9" d="M1791.1 318.2h145.8v149.6h-145.8z"/><path d="M1862 398.5c.2-6.2-1.2-14.3 10.2-17.6 3.6-.5 10-1.2 12.1-1.1 1.2.1 2.3.1 3.4.1 12.7.3 23.4 4.1 23.6 16.9.2 7.5-.3 22.7-1 31.7-1.2 19.5 5.6 28.7 9.4 38.9 0 0-6.4 9.4-24.5 5.8-20-4.1-38.3-1.3-38.7-1.3 1.1-1.3 4.1-19.9 4.6-41.4.3-15.9.5-19.2.9-32z" fill="#7945c1"/><defs><filter id="Adobe_OpacityMaskFilter_4_" filterUnits="userSpaceOnUse" x="1872.8" y="379.8" width="61.1" height="94.9"><feColorMatrix values="1 0 0 0 0 0 1 0 0 0 0 0 1 0 0 0 0 0 1 0"/></filter></defs><mask maskUnits="userSpaceOnUse" x="1872.8" y="379.8" width="61.1" height="94.9" id="mask6_1_"><path d="M1865.6 399.1c.2-6.2-1.2-14.3 10.2-17.6 3.6-.5 10-1.2 12.1-1.1 1.2.1 2.3.1 3.4.1 12.7.3 23.4 4.1 23.6 16.9.2 7.5-.3 22.7-1 31.7-1.2 19.5 5.6 28.7 9.4 38.9 0 0-6.4 9.4-24.5 5.8-20-4.1-38.3-1.3-38.7-1.3 1.1-1.3 4.1-19.9 4.6-41.4.3-16 .5-19.2.9-32z" fill="#de1414" filter="url(#Adobe_OpacityMaskFilter_4_)"/></mask><g mask="url(#mask6_1_)"><path class="st25" d="M1909.8 379.8s2.2 29.6-5.7 47.9c-7.8 18.4-31.3 44.6-31.3 44.6l61.1 2.3-3.8-68.9-20.3-25.9z"/></g><path class="st11" d="M1894.7 380.7s-1.3-2-1.6-6.7c-.4-4.3 2-10.5 2-10.5s3.6-1.7 4.8-4.5c1.2-2.8 2.7-7.7 1.1-11.2-1.6-3.5-2.9-6.3-8.1-8-5.2-1.7-9.9-2-12 .4-2.1 2.4-3.4 7.1-4.1 13-.4 4.2-1.8 12.5 2.2 14.8 2 1.1 3.8 1.3 3.8 1.3s0 4.4-.8 8.3c-1 5.1-3 13.1-3 13.1s3.5-1.4 7.7-3.9c4.3-2.5 8-6.1 8-6.1z"/><defs><filter id="Adobe_OpacityMaskFilter_5_" filterUnits="userSpaceOnUse" x="1873.9" y="350.7" width="22.8" height="46.4"><feColorMatrix values="1 0 0 0 0 0 1 0 0 0 0 0 1 0 0 0 0 0 1 0"/></filter></defs><mask maskUnits="userSpaceOnUse" x="1873.9" y="350.7" width="22.8" height="46.4" id="mask7_1_"><path d="M1894.7 380.7s-.3-5.7-.7-10.1c-.4-4.3 1.2-7.1 1.2-7.1s3.6-1.7 4.8-4.5c1.2-2.8 2.7-7.7 1.1-11.2-1.6-3.5-2.9-6.3-8.1-8-5.2-1.7-9.9-2-12 .4-2.1 2.4-3.4 7.1-4.1 13-.4 4.2-1.8 12.5 2.2 14.8 2 1.1 3.8 1.3 3.8 1.3s0 4.4-.8 8.3c-1 5.1-3 13.1-3 13.1s3.5-1.4 7.7-3.9 7.9-6.1 7.9-6.1z" fill-rule="evenodd" clip-rule="evenodd" fill="#ffb8b8" filter="url(#Adobe_OpacityMaskFilter_5_)"/></mask><g mask="url(#mask7_1_)"><path class="st11" d="M1880.4 378.5s3.8-1.4 5.4-2.6c1.7-1.4 3.4-4.2 3.4-4.2s-1.8.7-3.4 1.1c-1.9.5-3.6.2-3.6.2s-1.7 5.1-1.8 5.5z"/><path class="st9" d="M1877.4 379.8s1.2.9 5.1 1.8c4 .9 14.1-1.7 14.1-1.7l-5 14.2-15.4 3 1.2-17.3z"/><path class="st28" d="M1880.3 351c.5.1 1 .6 1 1.2 0 .4 0 .6-.1 1.2-.1.9-1.9 4.9-2.5 6.5-.2.3 0 .7.3.8l1.1.6c.3.1.4.4.3.7-.1.7-.2 1.9-.5 3 .9.2 2.2.2 3.2.1-.5.8-2.6 1.1-3.2 1.1 0 1.2-.5 2.6-.5 3.8-.1 1.4.4 2.3 1.5 3.4-1.9-.3-3.5-1.7-4.6-3.3-1.1-1.6-1.7-3.8-2-5.8-.6-3.8-.2-7.5.4-11.3.2-1.5.2-1.8 1.6-2.1 1.4-.4 2.9-.1 4 .1z"/></g><path d="M1877.2 350.7c-.4.4-11.1-5.8-5.4-13.9 3.7-5.2 10.2.2 10.2.2 7.2-3.8 18.9-.3 16.9 4.8 0 0 3.1-.3 4.9 2.9 1.1 2 1.5 4.3 1.3 6.6-.2 1.8-.8 3.6-1.6 5.3-1 1.9-2.9 3.7-4.8 5.8-1.6 1.8-2.9 4-4.6 4.4-.1 0 2-7.6 2-7.6s1.4-.1 2.2-.7c1.4-1 1.6-2.8.6-4.1-.7-.8-2.2-1.1-3.2-.4-1.3.9-1.3 2.3-1.8 4.3-1.4 5.9-1.6 15-8.7 16.6-5.7 1.2-9.9-2.6-8.9-9.8.1-1 2.3-2.5 5.1-2 5.5.9 4.2 5.7 6.8 3.8 2.9-2.1 1.6-6.1 3.2-12.8.4-1.5 2.1-5.9 2.1-5.9s-5.3 0-10.9-3.4c-2-1.2-3.6-.9-4 .1-.9 2.4-1.4 5.8-1.4 5.8z" fill-rule="evenodd" clip-rule="evenodd" fill="#212122"/><path class="st11" d="M1878.4 365.6c-.5.4.5 2.8 1.4 3.3 1.8.8 3.2-2.1 3-2.6-.2-.7-3.9-1.2-4.4-.7z"/><path class="st30" d="M1879.1 366.2c.1-.1.2-.2.3-.1.6.4 1.1.4 2 .2.1 0 .3.1.3.2s-.1.3-.2.3c-.9.1-1.6.2-2.3-.3-.1-.1-.2-.2-.1-.3z"/><path class="st5" d="M1878.9 354.8c.3.1.6-.2.6-.5l.1-.7c.1-.4-.2-.7-.4-.7-.3-.1-.6.2-.6.5l-.1.7c-.1.3.1.7.4.7z"/><path class="st6" d="M1887.5 352.9c-1.1-1-2.7-1.3-3.8-.9-.1 0-.2.1-.1.2 0 .1.1.2.2.1 1.1-.3 2.5-.1 3.5.9.1.1.2.1.2 0 .1-.1.1-.3 0-.3z"/><path class="st5" d="M1884.8 354.1c-.3-.1-.6.2-.7.5l-.1.7c-.1.4.2.7.5.8.3.1.6-.2.7-.5l.1-.7c.1-.5-.2-.8-.5-.8z"/><path class="st6" d="M1879.3 350.6c-.6-.1-1.1-.1-1.6.1-.1 0-.1.1-.1.2s.1.1.2.1c.4-.1.9-.2 1.5-.1.5.1 1 .3 1.3.5.1.1.2 0 .2 0 .1-.1 0-.2 0-.2-.4-.3-.9-.5-1.5-.6z"/></g></g><path class="st9" d="M2016.4 421.2h-80.6c-1.4 0-2.5 1.1-2.5 2.5v1.1c0 1.4 1.1 2.5 2.5 2.5h80.6c1.3 0 2.4-1.1 2.4-2.5v-1.1c.1-1.4-1-2.5-2.4-2.5zM2000 450.3h-64.2c-1.4 0-2.5 1.1-2.5 2.5v1.1c0 1.4 1.1 2.5 2.5 2.5h64.2c1.3 0 2.4-1.1 2.4-2.5v-1.1c.1-1.4-1-2.5-2.4-2.5zM1971.4 435.8h-35.6c-1.4 0-2.5 1.1-2.5 2.5v1.1c0 1.4 1.1 2.5 2.5 2.5h35.6c1.3 0 2.4-1.1 2.4-2.5v-1.1c.1-1.4-1-2.5-2.4-2.5z"/><defs><filter id="Adobe_OpacityMaskFilter_6_" filterUnits="userSpaceOnUse" x="1817" y="402.9" width="103.5" height="123"><feColorMatrix values="1 0 0 0 0 0 1 0 0 0 0 0 1 0 0 0 0 0 1 0"/></filter></defs><mask maskUnits="userSpaceOnUse" x="1817" y="402.9" width="103.5" height="123" id="mask8_1_"><path d="M1918.9 438.5c0 17.9-14.5 32.4-32.4 32.4s-32.4-14.5-32.4-32.4 14.5-32.4 32.4-32.4 32.4 14.5 32.4 32.4z" fill="#eaf5ff" filter="url(#Adobe_OpacityMaskFilter_6_)"/></mask><g mask="url(#mask8_1_)"><path class="st9" d="M1920.6 405.6c0-1.5-1.2-2.8-2.8-2.8h-70.6c-1.5 0-2.8 1.2-2.8 2.8v60.9c0 1.5 1.2 2.8 2.8 2.8h70.6c1.5 0 2.8-1.2 2.8-2.8v-60.9z"/><path d="M1869.1 440.9c.5-5-2-6.9-1.5-10.6.7-5.2 3.8-8.2 5.8-9.7 5.4-4 11.4-4.1 17.7-2.7 5.9 1.3 5.8 5.1 9.8 8 3.8 2.8 10.9 2.4 12.8 7.9 2.9 8.4-1.7 7.7.1 14.1 1.9 6.6 7.6 8.1 6.6 14.7-1.3 8.2-6.9 11.2-15.5 11.4-4.4.1-8.1-1.6-12-2.8-4.2-1.2-8.4-1.8-11.8-4.4-2.2-1.6-3.3-4.1-5.2-5.9-2.9-2.9-6.1-5.2-7.4-9.1-1.2-3.8.2-7.3.6-10.9z" fill-rule="evenodd" clip-rule="evenodd" fill="#ff0628"/><path class="st18" d="M1877.3 454.6s-5.7 9.1-14.2 18.4c-4.8 5.3-12.2 9.8-18.6 11-8.8 1.6-23.8 5.4-23.8 5.4l-3.6-6.7 35.9-16.4 24.3-11.7z"/><path class="st18" d="M1902.1 458.7s-7.8 3.4-6.4 13.4c0 8-10.5 7.1-16 7.1-11.3-.2 24.3 46.6 24.3 46.6l-35.6-3.3-.8-30-3.5-31.3 10.4-5.8c1.9-1.1 4.1-1.4 6.2-.8l21.4 4.1z"/><path class="st11" d="M1876.8 442.9c.1 0 .1-.1.1-.1 0-.1-.1-.1-.1-.1h-.3c-.6 0-1.2-.1-1.8-.2-.1 0-.2-.1-.3-.1-.2-.1-.3-.2-.3-.5.1-.4.1-1.1.2-1.5 0-.3-.1-.6-.4-.7-.3-.1-.7-.3-1-.4-.2-.1-.3-.2-.3-.4 0-.1 0-.4.1-.5.6-.9 1.5-2.4 2-3.3.2-.3.4-.7.4-1.1.1-.8.2-2.5.2-3.4.2-3.4 2.9-4.5 2.9-4.5s.4 5.2 3.6 7.2c2.8 1.9 5 2 5 2s.5-1.6 2.2-1.1c1.3.4 1.6 2.6 1.1 3.9-.8 2.2-2.8.7-2.8.7s.2 2.7.5 4.3c.8 3.6 2 7.1 2 7.1l2 6.6s-2.5 3.5-7 2.8c-3.1-.5-3.5-4.2-3.5-4.2l-1-6.4s-2.3-.2-4.1-.3c-.6-.1-1.1-.3-1.4-.7-.3-.4-.5-1-.5-1.5.1-.6.2-1.2.1-1.6 0-.4-.2-.8-.2-1.1v-.3c.1-.1.2-.2.3-.2h.1c.8 0 1.5-.2 2.2-.4z"/><path class="st15" d="M1877.8 435.6c.2 0 .4-.2.5-.4 0-.2-.2-.4-.4-.5h-.7c-.2 0-.4.2-.5.4 0 .2.2.4.4.5.2 0 .5-.1.7 0z"/><path class="st25" d="M1879.4 434.2c-.5-.3-.9-.7-1.5-.9-.6-.2-1.2-.1-1.8-.1l.1.5c.5-.2 1.1-.3 1.6-.2.6.2 1.1.4 1.6.7z"/><path class="st18" d="M1891.6 474.5c.3-.8.7-6.4 3.1-9.8 2.6-3.9 7.5-5.9 7.5-5.9s7.1 11.7-3.2 31.5c-.6 1.2-1.1 2.3-2 3.8-6.6 10.5-13.2 16.6-26.3 12.1-11.9-4.1-24.6-15.5-24.6-15.5s1.1.3 3.3-1.4c1.7-1.3 1.3-4.3 1.3-4.3s9.4 6.8 18.7 9.7c9.3 2.9 13.9-1 19.3-10.4 2.2-4 2.9-9.8 2.9-9.8z"/></g><path class="st9" d="M2016.4 336.9h-80.6c-1.4 0-2.5 1.1-2.5 2.5v1.1c0 1.4 1.1 2.5 2.5 2.5h80.6c1.3 0 2.4-1.1 2.4-2.5v-1.1c.1-1.4-1-2.5-2.4-2.5zM2000 366h-64.2c-1.4 0-2.5 1.1-2.5 2.5v1.1c0 1.4 1.1 2.5 2.5 2.5h64.2c1.3 0 2.4-1.1 2.4-2.5v-1.1c.1-1.4-1-2.5-2.4-2.5zM1971.4 351.5h-35.6c-1.4 0-2.5 1.1-2.5 2.5v1.1c0 1.4 1.1 2.5 2.5 2.5h35.6c1.3 0 2.4-1.1 2.4-2.5V354c.1-1.4-1-2.5-2.4-2.5z"/><path class="st34" d="M1782 659h-105c-8.3 0-15-6.7-15-14.9V539.9c0-8.2 6.7-14.9 15-14.9h105c8.3 0 15 6.7 15 14.9v104.2c0 8.2-6.7 14.9-15 14.9z"/><path class="st9" d="M1750.9 629h-35.8c-.6 0-1.1.5-1.1 1.2v.6c0 .7.5 1.2 1.1 1.2h35.8c.6 0 1.1-.5 1.1-1.2v-.6c0-.7-.5-1.2-1.1-1.2zM1750.9 638h-35.8c-.6 0-1.1.5-1.1 1.2v.6c0 .7.5 1.2 1.1 1.2h35.8c.6 0 1.1-.5 1.1-1.2v-.6c0-.7-.5-1.2-1.1-1.2zM1763 539c-.6 0-1 .4-1 1s.4 1 1 1h10v9c0 .6.4 1 1 1s1-.4 1-1v-11h-12zm-77 11c0 .6.4 1 1 1s1-.4 1-1v-9h10c.6 0 1-.4 1-1s-.4-1-1-1h-12v11zm88 55c-.6 0-1 .4-1 1v10h-10c-.6 0-1 .4-1 1s.4 1 1 1h12v-12c0-.6-.4-1-1-1zm-86 1c0-.6-.4-1-1-1s-1 .4-1 1v12h12c.6 0 1-.4 1-1s-.4-1-1-1h-10v-10z"/><path d="M1733.7 649.8c3.8-.8 7.6-3.7 9.1-11.5 2-10.6-5-15.3-7.4-16.6-.5 4.7-1.7 11.1-2.6 17.5-.4 3.3.1 7.1.9 10.6z" fill="none"/><path d="M1762.1 547h-65.2c-1 0-1.9.8-1.9 1.9v58.2c0 1 .8 1.9 1.9 1.9h16.2c4.4-4.8 6.4-7.5 6.4-7.5 4.1 2.4.8 1.1 4.9 3.6.9.5 1.7.6 1.9 1.8 0 .1.7.8 1.4 1.6l4.9-2 1.2-2.8-.2-1.7c-.5-3.4-.1-.5-.1-.5l.1.5c.1.8.3 2 .5 3.7v-.1s2.7 1.1 6.1 3.4h22c1 0 1.9-.8 1.9-1.9v-58.2c-.1-1.1-.9-1.9-2-1.9z" fill="#f9f9f9"/><path class="st37" d="M1721.2 609l1.7 6.6 4.2-6.6zM1718.9 605.2l2 2.5.3 1.3h5.9l.2-.3.4-.2c-.7-.8-1.4-1.5-1.4-1.6-.2-1.2-1-1.3-1.9-1.8-4.1-2.5-.8-1.2-4.9-3.6 0 0-2 2.7-6.4 7.5h3.8c1.1-2.4 2-3.8 2-3.8z"/><path class="st38" d="M1733.5 602l-.1-.5s-.4-2.9.1.5zM1733.1 609c.4-1.7.8-2.9.9-3.3-.2-1.7-.4-2.9-.5-3.7l.2 1.7-1.2 2.8-4.9 2c.1.2.3.3.4.5h5.1z"/><path class="st38" d="M1727.1 609h1c-.1-.2-.3-.3-.4-.5l-.4.2-.2.3zM1718.9 605.2s-.8 1.3-2.1 3.8h4.4l-.3-1.3-2-2.5zM1734 605.7c.1.9.3 2 .5 3.3h5.6c-3.4-2.2-6-3.4-6.1-3.3.1-.1.1 0 0 0z"/><path class="st38" d="M1734.5 609c-.2-1.3-.3-2.3-.5-3.3-.1.3-.6 1.6-.9 3.3h1.4z"/><path class="st30" d="M1733.1 610.1c.3.2 6.7 1 8.4 2.4 2.5 2.1 6.9-7.4 2.3-14.7-3.7-5.8-10-6-9.9-6 3.4-1 9.9-6.3 10.2-16.3.3-10-6.6-16.1-11.3-16.9-5.8-1-6.3-2.4-12.6-1.1-8.3 1.7-12.6 10.8-11.9 19.7.6 9.3 10.9 15.4 14.7 15.3 2.3-.1 1.3 12.6-5.2 12.4-2.6-.1 12.3 1 14 3l1.3 2.2z"/><path class="st18" d="M1731.4 598.4c-.7-.5-7.4-.7-9.7.1-4.2 1.5-5 5.8-2.9 7.9 8.8 9.1 19.9-2.9 12.6-8z"/><path class="st4" d="M1737.1 566.2c-1.4-4.9-7.4-6-13.5-4.8-4.4.8-8.7 2.1-8.6 4.8.5 9.7-1.6 12.3-.6 16.9 1.8 8.1 8.7 7.2 8.7 7.2.8-.1 1.6-.2 2.4-.6 2.1-1 3.3-2.2 3.7-2.7.2-.2.2-.3.2-.3s-.1.1-.2.3c-.9 1.1-4.1 5.3-5.3 7.1-.7 1.2-1.4 2.4-2 3.5-1.3 4.1-1.8 5.5-3.4 8.2-4.8 7.8 14.8 3.5 13.8-1.7-1.4-7.3-1.8-10.7-1.1-19.1.2-2.5.2-2.6 1.2-4.1.4-.5 2.3-1.4 3.4-3.5 1.3-2.5 2.2-8 1.3-11.2z"/><path class="st39" d="M1729.2 587c-.5.5-1.6 1.6-3.7 2.7-.8.4-1.6.6-2.4.6 0 .3-.8 6.1-1 6.7-.1.2-.1.4-.2.6.6-1.1 1.3-2.3 2-3.5 1.2-1.8 4.4-5.9 5.3-7.1zM1729.2 587c.2-.2.2-.3.2-.3s0 .1-.2.3z"/><path class="st30" d="M1717.7 559.3l-4.1 3.7s-7.7 4.5.9 5.9c6.7 1.1 13.5-1.3 13.5-1.3s-.1 3.8 1.7 9.9c0 0 1.7 6.3 4.5 8.4 2.9 2.1-.6 6.1-.6 6.1s4.9-2 7.8-8c2.4-4.9-1.7-14.6-1.6-14.7.3-.3-5.6-8.2-5.8-8.5-.2-.3-12-.5-12-.5l-4.3-1z"/><path class="st40" d="M1729 568.1c0 1.8.2 3.5.6 5.2.3 1.3.7 2.5 1.1 3.8 1.3 3.6 3.1 7 5.3 10.3-4-3.9-8.1-12.4-7-19.4v.1z"/><path class="st30" d="M1730.4 566.1s-1.3 2.4-3.4 3.3c-3.1 1.4-7.1.5-6.7.2 1 0 6.3-.8 7.4-3.2l2.7-.3z"/><path class="st40" d="M1736.4 596.6c-.7-1-1.7-1.9-2.7-2.7-.2-.2-.8-.5-.9-.6.3.1.6.2.8.3 2.5 1 4.4 3.2 4.9 5.8.2.5.1 2.5 0 1.2v-.2-.1c-.2-.8-.5-1.4-.9-2.1-.3-.5-.6-1-.9-1.4-.1 0-.2-.1-.3-.2z"/><path class="st40" d="M1739.2 596.5c-.4-.4-.9-.9-1.4-1.3-1.2-1-2.6-1.9-4-2.8 1.7.5 4.4 1.9 5.9 3.5 1.8 1.8 3 4.1 3.6 6.6-.9-2.2-2.4-4.4-4.1-6zM1710.8 568.7c-.2 1-.4 2-.6 2.9 0 .3-.1.5-.1.8V573.1s0 .1 0 0v.1s0 .1 0 0V575.7s0 .1 0 0v2s0 .1 0 0V578s0 .1 0 0v.3c0 .2.1.3.1.4 0 .1.1.2 0 .3.2.8.4 1.7.7 2.5 1.1 3.4 3.3 6.3 6.1 8.6.5.4 1.1.9 1.6 1.2-.5-.3-1-.6-1.4-.9-7.6-5.5-9.5-14.1-6.4-21.7zM1711.7 566.8c.7.2 1.5.3 2.2.3.5 0 1.1.1 1.6.1H1716.1c1.2 0 2.6-.2 3.8-.3l2.1-.3c.9-.2 1.8-.4 2.8-.6.4-.1 2-.7 1.5-.4-2.8 1.4-5.8 2.3-8.9 2.3h-.8c-1.5 0-4.1-.6-4.9-1.1zM1725.7 568c1.5-.5 3.2-1.6 4.3-2.7-.7 1.1-1.7 2-2.8 2.7-2 1.2-4.3 1.5-6.6 1.7 1.6-.6 3.6-1.1 5.1-1.7z"/><path class="st41" d="M1727.2 608.3l-1.1 2.2 2.2-1.7 4 2.9s3.7-2.2 4-7.4c.2-3.3-4.6-6.1-4.6-6.1s3.3 4.3 1 6.9c-2.7 3.1-5.5 3.2-5.5 3.2zM1721 606.8l.4 3-1.5-2.5-3.6 3.1s-1.5-3.2-.9-6.7c.9-5.2 5.8-5.5 5.8-5.5s-3.3 1.8-2.6 4.9c.7 2.5 2.4 3.7 2.4 3.7z"/><path class="st19" d="M845.6 591.9H732.4c-7.4 0-13.4-6-13.4-13.4V441.4c0-7.4 6-13.4 13.4-13.4h113.2c7.4 0 13.4 6 13.4 13.4v137.1c0 7.4-6 13.4-13.4 13.4z"/><path class="st9" d="M796.7 543.5h-53.2c-.9 0-1.6.7-1.6 1.6v.8c0 .9.7 1.6 1.6 1.6h53.2c.9 0 1.6-.7 1.6-1.6v-.8c0-.8-.7-1.6-1.6-1.6zM785.9 562.7h-42.4c-.9 0-1.6.7-1.6 1.6v.8c0 .9.7 1.6 1.6 1.6h42.4c.9 0 1.6-.7 1.6-1.6v-.8c0-.8-.7-1.6-1.6-1.6zM767 553.1h-23.5c-.9 0-1.6.7-1.6 1.6v.8c0 .9.7 1.6 1.6 1.6H767c.9 0 1.6-.7 1.6-1.6v-.8c0-.8-.7-1.6-1.6-1.6z"/><path class="st15" d="M1720.5 574.9c.7.2-1.3 3.8-1.4 4.5.2.3 1 .2 1 .7-.2.6-1.6-.3-1.5-.6.4-1.4 1.1-2.8 1.6-4.2.1-.1.1-.4.3-.4zm-.3.3c.1 0 0 0 0 0zm0 0zM1725.6 573h-.1-.1-.1-.1-.4c-.4.1-.8.2-1.2.4.4-.4.9-.7 1.5-.8.1 0 .3-.1.4-.1h.2c.7 0 1.5.5 1.9.9-.4-.1-.7-.2-1.1-.3-.3 0-.6-.1-.9-.1.1 0 0 0 0 0zM1717.8 572.5s-.1 0 0 0h-.1-.1-.1-.1H1717.1c-.3 0-.6.1-.8.1.3-.3.7-.5 1.2-.6H1718.1c.7.1 1.3.5 1.6 1.1-.1 0-.1-.1-.2-.1-.2-.2-.5-.3-.8-.4-.1-.1-.4-.1-.6-.1h-.1-.2c.1 0 .1 0 0 0zM1717.5 574.7c.8 0 .5 1.8-.1 1.7-.8 0-.6-1.7.1-1.7zM1725.8 575.1c.8 0 .5 2-.1 1.9-.9.1-.6-2 .1-1.9zM1718.5 583.2c.1 0 .1 0 .2.1.7.7 1.7.9 2.6.7.3-.1.5-.2.8-.4.1-.1.3-.2.4-.3.1-.1.3 0 .3.1.1.2-.1.3-.2.4-.2.1-.3.3-.5.4-.8.5-1.8.5-2.7.2-.3-.1-.6-.3-.9-.5l-.4-.4c.1-.2.2-.3.4-.3z"/><path class="st9" d="M823.6 444.7c-.6 0-1.1.5-1.1 1.1s.5 1.1 1.1 1.1h10.3v9.5c0 .6.5 1.1 1.1 1.1s1.1-.5 1.1-1.1v-11.7h-12.5zM743 457.5c.6 0 1.1-.5 1.1-1.1v-9.5h10.3c.6 0 1.1-.5 1.1-1.1s-.5-1.1-1.1-1.1h-12.7v11.7c.1.6.6 1.1 1.3 1.1zm92 57.1c-.6 0-1.1.5-1.1 1.1V526h-10.3c-.6 0-1.1.5-1.1 1.1s.5 1.1 1.1 1.1h12.5v-12.5c0-.6-.5-1.1-1.1-1.1zm-90.9 1.2c0-.6-.5-1.1-1.1-1.1s-1.1.5-1.1 1.1v12.5h12.5c.6 0 1.1-.5 1.1-1.1s-.5-1.1-1.1-1.1h-10.3v-10.3zM829.5 566.9c-6.5 0-11.8-5.3-11.8-11.8 0-6.5 5.3-11.8 11.8-11.8 6.5 0 11.8 5.3 11.8 11.8 0 6.5-5.3 11.8-11.8 11.8zm0-21.4c-5.3 0-9.5 4.3-9.5 9.5 0 5.3 4.3 9.5 9.5 9.5s9.5-4.3 9.5-9.5-4.2-9.5-9.5-9.5z"/><path class="st9" d="M828.7 559.7l-4.6-4.6c-.4-.4-.4-1.2 0-1.6.4-.4 1.2-.4 1.6 0l2.9 2.9 4.5-4.4c.4-.4 1.2-.4 1.6 0 .4.4.5 1.2 0 1.6l-6 6.1zM755.1 454.5h67.4c1 0 1.9.8 1.9 1.9v60.3c0 1-.8 1.9-1.9 1.9h-67.4c-1 0-1.9-.8-1.9-1.9v-60.3c0-1 .9-1.9 1.9-1.9z"/><defs><filter id="Adobe_OpacityMaskFilter_7_" filterUnits="userSpaceOnUse" x="735.8" y="455" width="92.4" height="127.3"><feColorMatrix values="1 0 0 0 0 0 1 0 0 0 0 0 1 0 0 0 0 0 1 0"/></filter></defs><mask maskUnits="userSpaceOnUse" x="735.8" y="455" width="92.4" height="127.3" id="mask13_1_"><path d="M755.1 454.5h67.4c1 0 1.9.8 1.9 1.9v60.3c0 1-.8 1.9-1.9 1.9h-67.4c-1 0-1.9-.8-1.9-1.9v-60.3c0-1 .9-1.9 1.9-1.9z" fill="#eaf5ff" filter="url(#Adobe_OpacityMaskFilter_7_)"/></mask><g mask="url(#mask13_1_)"><path class="st9" d="M752.1 455h76.1v68.5h-76.1z"/><path class="st10" d="M817.8 536.7l-6.6-15.7s-1.9-6.8-15.9-11.1l-2.9-1-13.1-1.8-15.6 4.4s-12.8 4.4-17.5 20l-10 28.2s-3.4 9.6 6.6 14l10.3 2.3-.9 6.5h54.3l11.3-45.8z"/><path class="st11" d="M779.4 507.6l3.4-9.9-2.2-22.7 25.6.8s-.1 2.6-.9 6.8c-.2 1 .8 6.3 1.2 8.2.1.2 0 .4-.1.5-.1.2-.3.2-.5.3-.6.1-1.4.2-1.4.2l-.4 3.5s-.9 0-1.5-.1c-.9-.1-2.4-.5-2.4-.5s1 .9 1.9 1.3c.6.3 1.9.5 1.9.5s-.8 2.6-1.1 4.4c-.5 3.8-9.1.8-9.1.8l-1.4 9.9-.8 4.5-8.9-5.5-3.3-3z"/><defs><filter id="Adobe_OpacityMaskFilter_8_" filterUnits="userSpaceOnUse" x="789.6" y="499.1" width="12.7" height="16.4"><feColorMatrix values="1 0 0 0 0 0 1 0 0 0 0 0 1 0 0 0 0 0 1 0"/></filter></defs><mask maskUnits="userSpaceOnUse" x="789.6" y="499.1" width="12.7" height="16.4" id="mask14_1_"><path d="M778.5 509.6l4.5-12-2.1-22.5 25.2.8s-.1 2.5-.9 6.8c-.1 1 .8 6.2 1.2 8.1.1.2 0 .4-.1.5-.1.2-.3.2-.5.3-.6.1-1.3.2-1.3.2l-.4 3.5s-.9 0-1.5-.1c-.9-.1-2.4-.5-2.4-.5s1 .9 1.8 1.3c.6.3 1.9.4 1.9.4s-.8 2.6-1.1 4.3c-.5 3.8-8.9.8-8.9.8l-1.4 9.9-2.4 14.2-7-12.2-4.6-3.8z" fill-rule="evenodd" clip-rule="evenodd" fill="#ffb8b8" filter="url(#Adobe_OpacityMaskFilter_8_)"/></mask><g mask="url(#mask14_1_)"><path class="st14" d="M802.3 502.8s-3.8.2-6.7-.7c-2.9-.9-6-3-6-3s1.6 2.3 1.9 7.7c.2 3.7.3 8.7.3 8.7l6.7-6 3.8-6.7z"/></g><path class="st6" d="M802 484.6c.1-.4-.3-.7-.8-.7-.4-.1-.8.2-.9.6v1c-.1.4.3.7.8.7.4.1.8-.2.9-.6-.1-.3 0-.7 0-1zM802.4 482.5c-1.3-.5-2.7-.3-3.5.5 0 .1-.1.1-.2 0 0-.1-.1-.1 0-.2.9-.9 2.3-1.1 3.7-.6.1 0 .1.1.1.2.1.1 0 .1-.1.1z"/><path class="st15" d="M783 497.7s-3.8-1.8-2.8-5.5c.5-1.9 1-2.9-.3-5.3-2-3.6-4.8-10.6-1.6-15 2.4-3.4 6-2.6 6-2.6s1.8-5.5 7.7-5.5c7.5 0 10.4 3.8 11.5 5 .9.9 2.2-2.1 6.4-1.5 7 1 5.2 6.7 4.1 8.2s-2.2 3.5-4.5 4.2c-2.3.7-9.1.9-14.6-.6-3.6-1-4.8-2.1-4.8-2.1s-.1 1.7-.7 3.6c-.8 2.6-1.5 3.8-1.5 3.8s-.6-1.7-1.8-1.8c-1.4 0-1.9 1.3-1.8 2 .2 2.4 2.6 3.1 2.6 3.1l-3.9 10z"/><defs><filter id="Adobe_OpacityMaskFilter_9_" filterUnits="userSpaceOnUse" x="777.5" y="462.6" width="37.5" height="33.9"><feColorMatrix values="1 0 0 0 0 0 1 0 0 0 0 0 1 0 0 0 0 0 1 0"/></filter></defs><mask maskUnits="userSpaceOnUse" x="777.5" y="462.6" width="37.5" height="33.9" id="mask15_1_"><path d="M782.9 497.7s-3.8-1.8-2.7-5.5c.5-1.9 1-2.9-.3-5.2-2-3.6-4.8-10.6-1.6-15 2.4-3.4 5.9-2.6 5.9-2.6s1.8-5.5 7.7-5.5c7.4 0 10.3 3.8 11.5 5 .9.9 2.2-2.1 6.4-1.5 6.9 1 5.1 6.7 4.1 8.2-1 1.4-2.2 3.5-4.5 4.2-2.3.7-9 .9-14.5-.6-3.6-1-4.7-2.1-4.7-2.1s-.1 1.7-.7 3.6c-.8 2.6-1.5 3.8-1.5 3.8s-.6-1.7-1.8-1.8c-1.4 0-1.9 1.3-1.8 2 .2 2.4 2.6 3.1 2.6 3.1l-4.1 9.9z" fill-rule="evenodd" clip-rule="evenodd" fill="#4c277e" filter="url(#Adobe_OpacityMaskFilter_9_)"/></mask><g mask="url(#mask15_1_)"><path class="st18" d="M810.5 465.3c.1 0 .1 0 .2.1.1.2.1.4 0 .6 0 .1 0 .2-.1.3v.3c-.2 1.1-.6 2.2-1.2 3.2-2.1 3.4-5.4 6.2-9.7 5.6-2.1-.3-3.9-1.4-5.7-2.7-.6-.4-1.2-.9-1.8-1.3-1.1-.9-2.2-1.7-3.4-2.4-1.9-1.1-3.7-1.8-5.9-1.4-.1 0-.1 0-.2-.1 0-.1 0-.1.1-.2 2.3-.5 4.2.2 6.1 1.4 1.2.7 2.3 1.6 3.4 2.4.6.4 1.2.9 1.7 1.3 1.7 1.3 3.5 2.3 5.6 2.6 4.2.6 7.4-2.1 9.5-5.4.6-1 1-2 1.1-3.1v-.3c0-.1 0-.2.1-.3v-.5c.1 0 .1-.1.2-.1zm-21-2.7c1.4-.1 2.7.2 3.8.9.9.6 1.6 1.3 2.4 2l.5.5c.9.9 1.9 1.7 3.1 2.1.9.4 1.8.3 2.7 0 .3-.1.5-.3.8-.6v-.1-.1-.1s0-.1.1-.2.1-.1.2-.1.1.1.1.1c0 .1-.1.1-.1.1v.2c0 .1 0 .1-.1.2l-.9.6c-1 .4-2 .4-2.9 0-1.2-.4-2.2-1.3-3.1-2.2-.2-.2-.4-.3-.5-.5-.7-.7-1.5-1.4-2.3-2-1.1-.7-2.4-.9-3.7-.9-.1 0-.1 0-.1-.1-.1.3 0 .2 0 .2zm17.9 3v-.1-.1l.1-.1h.1V465.9l-.1.8c-.2.8-.5 1.6-1 2.3-1.4 2.1-3.8 3.8-6.4 3.8-2.1 0-3.8-.8-5.4-1.9-.7-.5-1.4-1-2.1-1.6-.1-.1-.2-.1-.2-.2-.8-.6-1.5-1.2-2.3-1.7-1.8-1.1-3.5-2.1-5.7-1.6-.1 0-.1 0-.2-.1 0-.1 0-.1.1-.2 2.2-.5 4.1.5 5.9 1.6.8.5 1.6 1.1 2.3 1.7.1.1.2.1.2.2.7.5 1.4 1.1 2.1 1.6 1.6 1.1 3.2 1.9 5.2 1.9 2.5-.1 4.8-1.6 6.2-3.7.4-.6.7-1.4.9-2.2l.1-.8c.2.1.2-.1.2-.2zm5.6 1.2c0-.1.1-.1.1-.1.2 0 .2.2.3.3 0 .1.1.3.1.4 0 .3 0 .6-.1.7 0 1.3 0 2.8-.8 3.9-1.8 3-5.6 5.5-9 5.8-4.1.3-8.4-1.4-11.5-3.9-.7-.5-1.3-1.1-2-1.7l-.1-.1c-.7-.6-1.3-1.2-2-1.7-1.4-1-2.8-1.9-4.7-2.1-.1 0-.1-.1-.1-.1 0-.1.1-.1.1-.1 1.9.2 3.4 1.1 4.8 2.1.7.5 1.3 1.1 2 1.7l.1.1c.6.6 1.3 1.1 1.9 1.6 3.1 2.5 7.4 4.1 11.4 3.8 3.4-.3 7.1-2.7 8.9-5.7.7-1.1.7-2.5.7-3.8 0-.1.1-.4.1-.7v-.4c0-.1-.1-.1-.1-.1-.1.3-.1.2-.1.1zm-20.7-.4c1.9 1.5 4 2.9 6.2 3.7 1.6.5 3.4.3 4.7-.9.5-.5.8-1.1 1.1-1.7v-.1-.1c0-.1.1-.1.1-.2v-.2-.1c0-.1.1-.1.1-.1.1 0 .1.1.1.1V467.1c0 .1-.1.2-.1.2v.2c-.3.7-.6 1.2-1.2 1.8-1.4 1.3-3.3 1.4-4.9.9-2.3-.8-4.4-2.2-6.3-3.7-.1-.1-.2-.2-.3-.2-1.7-1.4-3.3-2.8-5.7-2.4-.1 0-.1 0-.1-.1s0-.1.1-.1c2.4-.3 4.1 1.1 5.8 2.5.2 0 .3.1.4.2zm22.5 2.2v-.1h.2v.7l-.2 1.2c-.2 1.1-.7 2.1-1.2 3.2 0 .1-.1.2-.1.3-1.6 3.3-5.4 5.4-9 5.6-2.2.1-4.2-.3-6.3-.6-3.1-.7-5.8-1.5-8.3-3.5-.3-.2-.5-.4-.7-.6V475.4c.1.6 0 1.2-.1 1.7-.2 1.7-.7 3.4-1.2 5 0 .1-.1.2-.1.4-1.7 4.9-3.5 10.4-7.3 14.1h-.2v-.2c3.7-3.6 5.6-9.1 7.2-14 0-.1.1-.2.1-.3.6-1.6 1-3.3 1.2-4.9.1-.5.2-1.1.1-1.6 0-.1 0-.2-.1-.3v-.2-.1-.1-.2-.1c-.2-.2-.3-.4-.4-.6-.1-.1-.1-.2-.2-.3 0-.1-.1-.1-.1-.2-1.1 1.1-1.6 2.5-1.9 3.9-.1.7-.2 1.5-.3 2.3 0 .2 0 .3-.1.5-.1.6-.1 1.2-.2 1.7-.4 2.4-1.2 4.8-2.1 7-.6 1.8-1.5 3.5-2.6 5l-1.3 1.4c-.1.1-.2.1-.2.2-.1.1-.2.2-.3.2 0 0-.1.1-.2.1h-.1-.1c-.1 0 0-.1 0-.1 0-.1.1-.1.1-.1.1 0 .1-.1.2-.1.1-.1.2-.1.2-.2.1-.1.2-.2.3-.2l1.2-1.4c1.1-1.5 2-3.2 2.6-5 .9-2.3 1.7-4.6 2.1-7 .1-.6.1-1.1.2-1.7 0-.2 0-.3.1-.5.1-.8.2-1.5.3-2.3.3-1.5.8-2.9 2-4.1h.1c-.1-.2-.3-.4-.5-.6l-.1.1c-1.1.2-2 .8-2.8 1.7-1.7 1.7-2.3 4.2-2.3 6.6 0 .6.1 1.2.1 1.8 0 .2 0 .4.1.7.1.8.1 1.7 0 2.5-.2 1.6-.8 3.1-1.6 4.4-.3.5-.6.9-1 1.3l-.4.3H779.3v-.3h.1l.3-.3c.4-.4.7-.8.9-1.2.8-1.3 1.4-2.8 1.6-4.3.1-.8.1-1.6 0-2.4 0-.2 0-.4-.1-.6-.1-.6-.1-1.2-.1-1.9 0-2.5.6-5 2.4-6.8.8-.9 1.7-1.5 2.9-1.7 0-.1-.1-.1-.2-.2-.4-.4-.8-.8-1.3-1.2 0 .1 0 .1-.1.1-2.1.3-3.7 1.8-4.7 3.7-1 1.9-1.5 4.1-1.2 6 .1.4.2.9.3 1.3v.1l.3 1.2c.2.9.2 1.8 0 2.7 0 0-.1.2-.1.3v.1c-.1.2-.1.4-.2.6-.1.2-.2.4-.3.5l-.2.2h-.3c-.1 0-.1-.1 0-.2 0-.1.1-.1.2 0 0 0 .1 0 .1-.1.1-.1.2-.3.3-.5.1-.2.2-.4.2-.6v-.1c0-.1.1-.3.1-.3.2-.9.1-1.7 0-2.6l-.3-1.2v-.1c-.1-.4-.2-.9-.3-1.3-.3-1.9.1-4.2 1.2-6.1 1.1-1.9 2.7-3.4 4.9-3.8-.4-.3-.8-.6-1.3-.8-.3.1-.7.2-1 .4-.2.1-.4.3-.6.4 0 0-.1 0-.1.1-.2.1-.3.2-.5.3-2.6 1.9-4 4.6-4.4 7.7-.1.8-.1 1.5-.1 2.2 0 .1 0 .3.1.5v.7c0 .1 0 .2-.1.3 0 .1-.1.1-.2.1s-.1-.1-.1-.2v-.2-.3-.2c0-.2-.1-.4-.1-.5-.1-.7-.1-1.4.1-2.2.5-3.2 1.8-6 4.5-7.9.1-.1.3-.2.5-.3 0 0 .1 0 .1-.1.2-.1.4-.3.6-.4.3-.2.5-.3.8-.4-.9-.4-1.8-.7-2.7-.7-.1 0-.1-.1-.1-.1 0-.1.1-.1.1-.1 1 .1 2.1.4 3 .9h.1c.1 0 .1 0 .1.1 1 .5 1.9 1.2 2.7 2.1.4.4.8.9 1.1 1.4.1.1.1.2.2.3.1.2.2.3.3.5h.1v.1l.9.9c2.4 1.9 5.1 2.7 8.2 3.4 2.1.4 4.1.8 6.2.6 3.5-.2 7.2-2.3 8.8-5.4 0-.1.1-.2.1-.3.5-1.1.9-2 1.2-3.1l.2-1.2v-.1-.2c.4-.4.4-.5.4-.6z"/></g></g><path d="M753.4 474.2H590.3c-10.7 0-19.3-8.6-19.3-19.3V257.3c0-10.6 8.6-19.3 19.3-19.3h163.1c10.7 0 19.3 8.6 19.3 19.3V455c0 10.6-8.6 19.2-19.3 19.2z" fill="#d1facd" enable-background="new"/><path class="st9" d="M692.2 404.6h-87.1c-1.6 0-2.9 1.3-2.9 2.9 0 1.6 1.3 2.9 2.9 2.9h87.1c1.6 0 2.9-1.3 2.9-2.9 0-1.7-1.3-2.9-2.9-2.9zM674.4 432h-69.3c-1.6 0-2.9 1.3-2.9 2.9 0 1.6 1.3 2.9 2.9 2.9h69.3c1.6 0 2.9-1.3 2.9-2.9 0-1.6-1.3-2.9-2.9-2.9zM643.4 418.3h-38.3c-1.6 0-2.9 1.3-2.9 2.9 0 1.6 1.3 2.9 2.9 2.9h38.3c1.6 0 2.9-1.3 2.9-2.9-.1-1.6-1.4-2.9-2.9-2.9zM719.3 261.7v2.9h17v16h2.9v-18.9h-19.9zm-115.5 18.9h2.9v-16h17v-2.9h-19.9v18.9zM736.3 363v16h-17v2.9h19.9V363h-2.9zm-129.6 0h-2.9v18.8h19.9v-2.9h-17V363zM730.2 438.2c-9.4 0-17-7.6-17-17s7.6-17 17-17 17 7.6 17 17c0 9.3-7.6 17-17 17zm0-30.8c-7.6 0-13.7 6.2-13.7 13.7 0 7.6 6.2 13.7 13.7 13.7 7.5 0 13.7-6.2 13.7-13.7 0-7.5-6.1-13.7-13.7-13.7z"/><path class="st9" d="M729.1 427.9l-6.6-6.6c-.6-.6-.6-1.7 0-2.3.6-.6 1.7-.6 2.3 0l4.2 4.2 6.4-6.4c.6-.6 1.7-.6 2.3 0 .6.6.7 1.7 0 2.3l-8.6 8.8zM714.8 275.6h-86.5c-4.4 0-8 3.6-8 8V360c0 4.4 3.6 8 8 8h7c4.8-11.3 8.5-19.7 8.8-20.3 1.1-1.9 16.6-3.8 18.8-3.8 1.6 0 2.5-5.5 2.9-8.4.1-.8 1-1.2 1.7-.8.1.1.3.2.5.3.3-1.5.6-3.2.8-4.9.2-2.1.4-4.5.4-7h.2l.8.2 6.7 1.3 9.8 1.9v1.7c0 .3 0 .6-.1 1v10c.1 0 .1 0 .2-.1 1.3-.3 2.5.8 2.2 2.1-.3 1.5-.4 3.2.5 4.1 3.9.9 13.5 3.3 15.3 6.7.8 1.6 1.2 8 1.5 15.8h8.8c4.4 0 8-3.6 8-8v-76.4c-.3-4.2-3.9-7.8-8.3-7.8z"/><path class="st4" d="M686.5 336.6v-2.3-1.1-.3-.5-.3-.5-.7-.2-.6V329.2c0-.4 0-.7.1-1v-.2-.3-.2-.6-.1-.1-.2l-9.8-1.9-6.7-1.3-.8-.2h-.2c0 2.5-.1 4.9-.4 7-.2 1.8-.5 3.5-.8 4.9.2.1.4.3.6.4.2.1.4.2.6.4.2.1.3.2.4.2.2.1.3.2.5.2.2.1.3.2.4.2.2.1.3.2.4.2.2.1.3.2.4.2.1.1.2.1.3.2l.6.3c.2.1.3.1.5.2.1 0 .2.1.3.1.6.2 1.1.4 1.7.6 4.7 1.5 9.1 1.7 11.7 1.1.2-.9.2-1.8.2-2.7z"/><path d="M689.3 345.4c-.9-.8-.8-2.5-.5-4.1.3-1.3-.9-2.5-2.2-2.1-.1 0-.1 0-.2.1-2.5.6-6.9.5-11.7-1.1-.6-.2-1.1-.4-1.7-.6-.1 0-.2-.1-.3-.1-.2-.1-.3-.1-.5-.2l-.6-.3c-.1-.1-.2-.1-.3-.2-.2-.1-.3-.2-.4-.2-.2-.1-.3-.2-.4-.2-.2-.1-.3-.1-.4-.2-.2-.1-.3-.2-.5-.2-.2-.1-.3-.2-.4-.2-.2-.1-.4-.2-.6-.4-.2-.1-.4-.3-.6-.4-.2-.1-.3-.2-.5-.3-.7-.5-1.6 0-1.7.8-.4 3-1.3 8.4-2.9 8.4-2.2 0-17.7 1.9-18.8 3.8-.4.6-4.1 9-8.8 20.3H706c-.3-7.8-.7-14.3-1.5-15.8-1.7-3.5-11.3-5.9-15.2-6.8z" fill="#ffa620"/><path class="st5" d="M674.2 287.8c2.1-.5 4.5-.6 7.4-.2 0 0 5.1.5 9.8 3.7 3.8 2.6 9.3 8.1 3.1 23.3l-2.9 5.2c1 11.4 5.6 11.4 5.6 11.4s-2 1-3 1c0 0-1.4-.5-1.7-1.3 0 0 .3 1.2.6 1.6 0 0-7.9.8-11.8-2.2-2.1-1.6-4.5-5.4-6-9.3l-6 .4c-.1 2.6.8 5.5 3.7 8.6 0 0-7.4.7-9.8-1.3 0 0 .5 1 .9 1.5 0 0-8.2.3-11.6-2.3-3.3-2.7-1.1-44.8 21.7-40.1z"/><path class="st28" d="M686.9 326.5s-.4 5.2-.4 10.1c-9.3-.3-14.2-8.7-16.2-13.4l16.6 3.3z"/><path class="st4" d="M690 331.1s-21.9.4-21.9-13.3c0-13.7-2.8-22.8 11.1-23.6 14-.8 16.7 4.4 17.8 9 1.1 4.5-1.3 27.5-7 27.9z"/><path class="st6" d="M682.4 311.9c.1-.5-.5-.9-1-1-.6-.1-1.1.3-1.1.8-.1.4 0 1 0 1.3-.1.5.5.9 1 1 .6.1 1.1-.3 1.1-.8-.2-.3-.1-.9 0-1.3zM693.4 311.9c.1-.5-.5-.9-1-1-.6-.1-1.1.3-1.1.8-.1.4 0 1 0 1.3-.1.5.5.9 1 1 .6.1 1.1-.3 1.1-.8-.2-.3-.1-.9 0-1.3zM682.9 309.1c-1.8-.6-3.5-.4-4.6.7-.1.1-.2.1-.2 0-.1-.1-.1-.2 0-.2 1.2-1.2 3.1-1.4 4.9-.8.1 0 .1.1.1.2s-.1.2-.2.1zM693.9 309.1c-1.8-.6-3.5-.4-4.6.7-.1.1-.2.1-.2 0-.1-.1-.1-.2 0-.2 1.2-1.2 3.1-1.4 4.9-.8.1 0 .1.1.1.2s-.1.2-.2.1z"/><path class="st5" d="M689.1 293.8s-6 16-15.2 18.4c-9.2 2.4-13.2-.1-13.2-.1s7.1-5.6 8.5-15.4c.1 0 15.4-10.5 19.9-2.9z"/><path class="st5" d="M687.7 295.1s4.5 3.6 5.6 7.1c1.1 3.5 1.6 10.6 3.7 10.4 0 0 4.5-10.9-.5-17.1-5.5-6.5-8.8-.4-8.8-.4z"/><path class="st5" d="M688.5 295.7s-4.3 16.8-15.9 22.2c0 0 11.6-10.3 12.6-21.4 1-11.1 3.3-.8 3.3-.8z"/><path d="M663 343.8s11.6 7.3 20.3 5.6c0 0 2.1-1.3-.8-2.7-2.7-1.2-9-4.9-7.7-8.6-2.4-.8-4.9-1.9-7.2-3.5-.7-.5-1.6 0-1.7.8-.4 3-1.2 8.4-2.9 8.4z" fill="#f8883c"/><path class="st34" d="M1696.2 609.2h63.3v6.4h-63.3z"/><path class="st6" d="M689.4 323c-.2 0-.2.2-.3.2-.1.1-.2.2-.4.3-.4.3-1 .4-1.5.4-.4 0-.9-.1-1.3-.4-.2-.1-.4-.3-.6-.4-.2-.1-.4.1-.3.3.9 1 2.5 1.2 3.7.6.4-.2.8-.5 1-.8 0 0-.1-.2-.3-.2z"/></svg>