<svg width="24" height="24" viewBox="0 0 24 24" fill="none" xmlns="http://www.w3.org/2000/svg">
<mask id="path-1-inside-1_39_225" fill="white">
<path fill-rule="evenodd" clip-rule="evenodd" d="M5 3.05999C7.09875 2.10053 9.68904 2.39057 11.9997 4.45904C14.312 2.39064 16.901 2.10041 19 3.05999C21.215 4.07299 22.75 6.42499 22.75 9.13699C22.75 9.25412 22.7479 9.37003 22.7436 9.48474C22.6518 11.9809 21.576 13.908 20.183 15.476C19.5092 16.2351 18.7479 16.9225 17.982 17.5549C17.9726 17.5635 17.9629 17.5718 17.953 17.58C17.4194 18.0191 16.8659 18.4454 16.3415 18.8493L16.3414 18.8494C16.0502 19.0737 15.7679 19.2911 15.503 19.5C14.99 19.904 14.441 20.334 13.883 20.66C13.3608 20.9647 12.7692 21.2166 12.1287 21.2469C12.086 21.249 12.0431 21.25 12 21.25C11.31 21.25 10.674 20.986 10.117 20.66C9.559 20.334 9.01 19.904 8.497 19.5C8.23209 19.2911 7.94985 19.0737 7.65865 18.8494L7.6585 18.8493L7.65846 18.8493C7.13406 18.4454 6.58061 18.0191 6.047 17.58C6.03709 17.5718 6.02741 17.5634 6.01797 17.5548C5.25208 16.9224 4.4908 16.2351 3.817 15.476C2.3635 13.8399 1.25533 11.8127 1.25002 9.15617L1.25 9.13699C1.25 6.42499 2.786 4.07299 5 3.05999Z"/>
</mask>
<path fill-rule="evenodd" clip-rule="evenodd" d="M5 3.05999C7.09875 2.10053 9.68904 2.39057 11.9997 4.45904C14.312 2.39064 16.901 2.10041 19 3.05999C21.215 4.07299 22.75 6.42499 22.75 9.13699C22.75 9.25412 22.7479 9.37003 22.7436 9.48474C22.6518 11.9809 21.576 13.908 20.183 15.476C19.5092 16.2351 18.7479 16.9225 17.982 17.5549C17.9726 17.5635 17.9629 17.5718 17.953 17.58C17.4194 18.0191 16.8659 18.4454 16.3415 18.8493L16.3414 18.8494C16.0502 19.0737 15.7679 19.2911 15.503 19.5C14.99 19.904 14.441 20.334 13.883 20.66C13.3608 20.9647 12.7692 21.2166 12.1287 21.2469C12.086 21.249 12.0431 21.25 12 21.25C11.31 21.25 10.674 20.986 10.117 20.66C9.559 20.334 9.01 19.904 8.497 19.5C8.23209 19.2911 7.94985 19.0737 7.65865 18.8494L7.6585 18.8493L7.65846 18.8493C7.13406 18.4454 6.58061 18.0191 6.047 17.58C6.03709 17.5718 6.02741 17.5634 6.01797 17.5548C5.25208 16.9224 4.4908 16.2351 3.817 15.476C2.3635 13.8399 1.25533 11.8127 1.25002 9.15617L1.25 9.13699C1.25 6.42499 2.786 4.07299 5 3.05999Z" fill="#FC3535"/>
<path d="M11.9997 4.45904L11.3328 5.20412L11.9995 5.80096L12.6665 5.20436L11.9997 4.45904ZM5 3.05999L4.58423 2.15052L4.58394 2.15065L5 3.05999ZM19 3.05999L19.4159 2.15058L19.4158 2.15052L19 3.05999ZM22.7436 9.48474L21.7443 9.44797L21.7443 9.44797L22.7436 9.48474ZM20.183 15.476L19.4354 14.8118L19.4351 14.8121L20.183 15.476ZM17.982 17.5549L17.3453 16.7837L17.3264 16.7994L17.3082 16.8159L17.982 17.5549ZM17.953 17.58L17.3178 16.8076L17.3176 16.8078L17.953 17.58ZM16.3415 18.8493L15.7313 18.0571L15.724 18.0627L15.7168 18.0685L16.3415 18.8493ZM16.3414 18.8494L16.9516 19.6416L16.9589 19.636L16.9661 19.6303L16.3414 18.8494ZM15.503 19.5L16.1217 20.2856L16.1221 20.2853L15.503 19.5ZM13.883 20.66L14.387 21.5237L14.3874 21.5234L13.883 20.66ZM12.1287 21.2469L12.176 22.2458L12.176 22.2458L12.1287 21.2469ZM10.117 20.66L10.6221 19.7969L10.6214 19.7965L10.117 20.66ZM8.497 19.5L7.87787 20.2853L7.8783 20.2856L8.497 19.5ZM7.65865 18.8494L8.26887 18.0572L8.26836 18.0568L7.65865 18.8494ZM7.6585 18.8493L7.0228 19.6213L7.03562 19.6318L7.04879 19.642L7.6585 18.8493ZM7.65846 18.8493L8.29416 18.0774L8.28158 18.067L8.26867 18.0571L7.65846 18.8493ZM6.047 17.58L6.68241 16.8078L6.6822 16.8076L6.047 17.58ZM6.01797 17.5548L6.69177 16.8159L6.67362 16.7994L6.65468 16.7837L6.01797 17.5548ZM3.817 15.476L4.56487 14.8121L4.56458 14.8118L3.817 15.476ZM1.25002 9.15617L0.250019 9.15717L0.250021 9.15817L1.25002 9.15617ZM1.25 9.13699L0.249999 9.13699L0.250001 9.13799L1.25 9.13699ZM12.6667 3.71396C10.0884 1.40597 7.07816 1.0104 4.58423 2.15052L5.41577 3.96946C7.11933 3.19066 9.28963 3.37516 11.3328 5.20412L12.6667 3.71396ZM19.4158 2.15052C16.9214 1.0102 13.9126 1.40622 11.333 3.71372L12.6665 5.20436C14.7114 3.37506 16.8806 3.19062 18.5842 3.96946L19.4158 2.15052ZM23.75 9.13699C23.75 6.05108 22.0023 3.33344 19.4159 2.15058L18.5841 3.96939C20.4277 4.81253 21.75 6.79889 21.75 9.13699H23.75ZM23.743 9.52151C23.7476 9.39448 23.75 9.26631 23.75 9.13699H21.75C21.75 9.24192 21.7481 9.34558 21.7443 9.44797L23.743 9.52151ZM20.9306 16.1402C22.4286 14.454 23.6402 12.3142 23.743 9.52151L21.7443 9.44797C21.6634 11.6476 20.7234 13.3621 19.4354 14.8118L20.9306 16.1402ZM18.6187 18.326C19.4058 17.6761 20.2099 16.9521 20.9309 16.1398L19.4351 14.8121C18.8085 15.518 18.0901 16.1688 17.3453 16.7837L18.6187 18.326ZM18.5882 18.3523C18.6113 18.3333 18.6338 18.3138 18.6558 18.2938L17.3082 16.8159C17.3113 16.8131 17.3145 16.8103 17.3178 16.8076L18.5882 18.3523ZM16.9517 19.6416C17.4741 19.2392 18.0403 18.8032 18.5884 18.3522L17.3176 16.8078C16.7984 17.235 16.2578 17.6516 15.7313 18.0571L16.9517 19.6416ZM16.9661 19.6303L16.9662 19.6302L15.7168 18.0685L15.7167 18.0685L16.9661 19.6303ZM16.1221 20.2853C16.3818 20.0805 16.6594 19.8667 16.9516 19.6416L15.7312 18.0572C15.4409 18.2807 15.154 18.5017 14.8839 18.7147L16.1221 20.2853ZM14.3874 21.5234C15.0153 21.1566 15.6179 20.6823 16.1217 20.2856L14.8843 18.7144C14.3621 19.1256 13.8667 19.5113 13.3786 19.7965L14.3874 21.5234ZM12.176 22.2458C13.045 22.2047 13.7992 21.8667 14.387 21.5237L13.379 19.7963C12.9225 20.0627 12.4934 20.2286 12.0815 20.248L12.176 22.2458ZM12 22.25C12.0591 22.25 12.1178 22.2486 12.176 22.2458L12.0815 20.248C12.0543 20.2493 12.0271 20.25 12 20.25V22.25ZM9.61188 21.523C10.2396 21.8904 11.0565 22.25 12 22.25V20.25C11.5635 20.25 11.1084 20.0815 10.6221 19.7969L9.61188 21.523ZM7.8783 20.2856C8.38206 20.6823 8.98474 21.1566 9.61255 21.5234L10.6214 19.7965C10.1333 19.5113 9.63794 19.1256 9.1157 18.7144L7.8783 20.2856ZM7.04843 19.6417C7.34061 19.8667 7.61821 20.0806 7.87787 20.2853L9.11613 18.7147C8.84598 18.5017 8.5591 18.2808 8.26887 18.0572L7.04843 19.6417ZM7.04879 19.642L7.04894 19.6421L8.26836 18.0568L8.26822 18.0567L7.04879 19.642ZM7.02275 19.6212L7.0228 19.6213L8.29421 18.0774L8.29416 18.0774L7.02275 19.6212ZM5.41159 18.3522C5.95969 18.8032 6.52591 19.2392 7.04824 19.6415L8.26867 18.0571C7.74221 17.6516 7.20153 17.235 6.68241 16.8078L5.41159 18.3522ZM5.34418 18.2938C5.36615 18.3138 5.38869 18.3333 5.4118 18.3523L6.6822 16.8076C6.68548 16.8103 6.68867 16.8131 6.69177 16.8159L5.34418 18.2938ZM3.06913 16.1398C3.79014 16.9521 4.59423 17.6761 5.38127 18.326L6.65468 16.7837C5.90992 16.1688 5.19146 15.518 4.56487 14.8121L3.06913 16.1398ZM0.250021 9.15817C0.255955 12.1261 1.50483 14.379 3.06941 16.1402L4.56458 14.8118C3.22217 13.3008 2.25471 11.4994 2.25002 9.15417L0.250021 9.15817ZM0.250001 9.13799L0.25002 9.15717L2.25002 9.15517L2.25 9.13598L0.250001 9.13799ZM4.58394 2.15065C1.99885 3.33344 0.25 6.05087 0.25 9.13699H2.25C2.25 6.7991 3.57315 4.81253 5.41606 3.96932L4.58394 2.15065Z" fill="black" mask="url(#path-1-inside-1_39_225)"/>
</svg>
