<svg width="1000" height="1000" viewBox="0 0 1000 1000" fill="none" xmlns="http://www.w3.org/2000/svg">
<path d="M265.161 734H245.819V642.514H281.913C302.685 642.514 314.701 654.218 314.701 672.399C314.701 684.907 308.939 693.975 298.53 698.442L317.962 734H296.609L279.277 701.569H265.161V734ZM278.205 658.328H265.161V686.024H278.294C289.373 686.024 294.778 681.467 294.778 672.399C294.778 663.286 289.373 658.328 278.205 658.328ZM328.37 642.514H390.016V658.462H347.713V680.261H386.844L377.642 696.208H347.713V718.053H390.195V734H328.37V642.514ZM446.402 735.251C421.922 735.251 403.786 718.097 403.786 688.257C403.786 658.328 422.235 641.263 446.402 641.263C464.002 641.263 478.029 649.661 483.702 664.626L466.548 674.543C465.074 664.492 457.436 658.372 446.849 658.372C432.688 658.372 423.396 669.227 423.396 688.257C423.396 707.823 432.822 718.142 446.715 718.142C457.034 718.142 464.717 712.513 466.548 702.73L483.479 712.513C478.074 725.2 465.253 735.251 446.402 735.251ZM519.327 734H499.985V642.514H536.079C556.851 642.514 568.867 654.218 568.867 672.399C568.867 684.907 563.104 693.975 552.696 698.442L572.128 734H550.775L533.443 701.569H519.327V734ZM532.371 658.328H519.327V686.024H532.46C543.539 686.024 548.944 681.467 548.944 672.399C548.944 663.286 543.539 658.328 532.371 658.328ZM582.536 701.926V636.93L601.879 648.098V700.274C601.879 710.726 609.249 718.276 620.462 718.276C631.719 718.276 639.045 710.726 639.045 700.274V642.514H658.387V701.926C658.387 721.939 643.199 735.295 620.462 735.295C597.635 735.295 582.536 721.939 582.536 701.926Z" fill="white"/>
<path d="M700.925 734L669.343 642.514H690.83L712.942 712.022H713.79L735.947 642.514H757.389L725.852 734H700.925Z" fill="#FF2323"/>
<circle cx="663.371" cy="576.741" r="27.2593" fill="white"/>
<circle cx="336.259" cy="263.259" r="27.2593" fill="white"/>
<path fill-rule="evenodd" clip-rule="evenodd" d="M383.963 236H615.667V276.889H383.963V236ZM383.963 563.111H615.667V604H383.963V563.111ZM649.741 535.852L690.63 535.852V304.148H649.741V535.852ZM349.889 304.148L349.889 535.852L309 535.852L309 304.148H349.889ZM336.259 604C351.314 604 363.519 591.796 363.519 576.741C363.519 561.686 351.314 549.482 336.259 549.482C321.204 549.482 309 561.686 309 576.741C309 591.796 321.204 604 336.259 604ZM690.63 263.259C690.63 278.314 678.425 290.519 663.37 290.519C648.316 290.519 636.111 278.314 636.111 263.259C636.111 248.204 648.316 236 663.37 236C678.425 236 690.63 248.204 690.63 263.259ZM615.667 420C615.667 483.983 563.798 535.852 499.815 535.852C435.832 535.852 383.963 483.983 383.963 420C383.963 356.017 435.832 304.148 499.815 304.148C563.798 304.148 615.667 356.017 615.667 420ZM421.152 420C421.152 449.596 437.497 475.375 461.652 488.802V402.281C461.198 395.467 465.468 381.701 486.185 381.156H513.444C522.304 381.383 540.567 388.788 542.748 416.593C542.975 423.18 540.976 437.446 531.163 441.807V450.667L552.288 478.606C568.363 464.203 578.478 443.283 578.478 420C578.478 376.556 543.259 341.337 499.815 341.337C456.37 341.337 421.152 376.556 421.152 420ZM499.815 498.663C497.053 498.663 494.325 498.521 491.637 498.243V450.667L523.667 494.963L523.675 494.979C516.149 497.372 508.133 498.663 499.815 498.663Z" fill="url(#paint0_linear_24_20)"/>
<path d="M531.163 450.667V441.807L522.304 430.222C517.397 421.499 511.627 419.318 509.356 419.318H500.496C493.409 418.773 491.637 428.178 491.637 432.948V450.667L523.667 494.963L525.03 497.689L554.334 494.281L552.289 478.607L531.163 450.667Z" fill="url(#paint1_linear_24_20)"/>
<defs>
<linearGradient id="paint0_linear_24_20" x1="604.081" y1="569.926" x2="297.415" y2="225.096" gradientUnits="userSpaceOnUse">
<stop stop-color="#FF2323"/>
<stop offset="1" stop-color="#FF5F5F"/>
</linearGradient>
<linearGradient id="paint1_linear_24_20" x1="537.296" y1="486.104" x2="493" y2="388.652" gradientUnits="userSpaceOnUse">
<stop stop-color="#FF2323"/>
<stop offset="1" stop-color="#833535"/>
</linearGradient>
</defs>
</svg>
