<svg width="67" height="67" viewBox="0 0 67 67" fill="none" xmlns="http://www.w3.org/2000/svg">
<path fill-rule="evenodd" clip-rule="evenodd" d="M53.9347 60.0478C61.8808 53.9223 67 44.309 67 33.5C67 14.9985 52.0015 0 33.5 0C14.9985 0 0 14.9985 0 33.5C0 48.0231 9.24163 60.3877 22.1649 65.0337V54.5946V30.2302C22.037 28.3118 23.2392 24.4365 29.0713 24.283H36.7452C39.2391 24.347 44.3806 26.4317 44.9945 34.259C45.0585 36.1135 44.4957 40.1295 41.7331 41.3573V43.8513L47.6804 51.7169L53.9347 60.0478ZM45.9956 64.5919L30.6061 43.8513V66.8767C31.5599 66.9584 32.5251 67 33.5 67C37.917 67 42.1344 66.1451 45.9956 64.5919Z" fill="url(#paint0_linear_3_302)"/>
<path fill-rule="evenodd" clip-rule="evenodd" d="M22.1093 65.0134C22.1278 65.0201 22.1464 65.0268 22.165 65.0335V54.5946V30.2302C22.0371 28.3117 23.2394 24.4364 29.0715 24.283H36.7453C39.2393 24.3469 44.3807 26.4316 44.9947 34.2589C45.0586 36.1134 44.4959 40.1294 41.7333 41.3572V43.8512L47.6805 51.7169L53.9346 60.0475C51.5266 61.9038 48.859 63.4397 45.9956 64.5916L30.6062 43.8512V66.8765C27.6474 66.6233 24.7983 65.9855 22.1093 65.0134Z" fill="url(#paint1_linear_3_302)"/>
<path fill-rule="evenodd" clip-rule="evenodd" d="M53.9346 60.0478L47.6804 51.717L41.7332 43.8513V41.3573L39.2392 38.0959C37.8579 35.6403 36.2336 35.0264 35.5941 35.0264H33.1001C31.1049 34.8729 30.6061 37.5204 30.6061 38.8633V43.8513L45.9956 64.5918C48.859 63.44 51.5266 61.904 53.9346 60.0478Z" fill="url(#paint2_linear_3_302)"/>
<defs>
<linearGradient id="paint0_linear_3_302" x1="67" y1="63.5437" x2="7.62169" y2="8.68518" gradientUnits="userSpaceOnUse">
<stop stop-color="#4E9F3D"/>
<stop offset="1" stop-color="#1E5128"/>
</linearGradient>
<linearGradient id="paint1_linear_3_302" x1="32.0803" y1="40.6784" x2="12.6152" y2="9.55025" gradientUnits="userSpaceOnUse">
<stop stop-color="#D8E9A8"/>
<stop offset="1" stop-color="#4E9F3D"/>
</linearGradient>
<linearGradient id="paint2_linear_3_302" x1="42.1851" y1="51.668" x2="28.8028" y2="30.7526" gradientUnits="userSpaceOnUse">
<stop stop-color="#D8E9A8"/>
<stop offset="1" stop-color="#4E9F3D"/>
</linearGradient>
</defs>
</svg>
